<svg width="60" height="60" viewBox="0 0 60 60" fill="none" xmlns="http://www.w3.org/2000/svg">
<g clip-path="url(#clip0_101_54)">
<path d="M6.42857 0C2.87946 0 0 2.87946 0 6.42857V53.5714C0 57.1205 2.87946 60 6.42857 60H53.5714C57.1205 60 60 57.1205 60 53.5714V6.42857C60 2.87946 57.1205 0 53.5714 0H6.42857ZM19.6714 17.8438C22.3013 17.8438 24.6378 18.7531 26.3583 20.1167C27.9494 21.3826 28.6946 22.6489 29.3447 23.7854L24.8014 26.0554C24.4764 25.3101 24.0853 24.5304 23.081 23.6873C21.9763 22.8098 20.8741 22.551 19.9304 22.551C16.2305 22.551 14.2827 25.9921 14.2827 29.8216C14.2827 34.8537 16.8489 37.3511 19.9304 37.3511C22.9171 37.3511 24.1195 35.2738 24.8965 33.9446L29.4107 36.2491C28.565 37.5785 27.7535 38.8788 25.9353 40.1423C24.9627 40.824 22.7241 42.1562 19.5421 42.1562C13.4713 42.1562 8.57143 37.7424 8.57143 29.9826C8.57143 23.201 13.1806 17.8437 19.6714 17.8437V17.8438ZM29.7808 18.5574H35.8832L40.6219 34.8536L45.3261 18.5574H51.4286L43.476 41.4742H37.6353L29.7808 18.5575V18.5574Z" fill="white"/>
</g>
<defs>
<clipPath id="clip0_101_54">
<rect width="60" height="60" fill="white"/>
</clipPath>
</defs>
</svg>
