<svg width="60" height="60" viewBox="0 0 60 60" fill="none" xmlns="http://www.w3.org/2000/svg">
<g clip-path="url(#clip0_101_50)">
<path d="M10 0C7.34784 0 4.8043 1.26428 2.92893 3.51472C1.05357 5.76515 0 8.8174 0 12V13.206L30 32.592L60 13.212V12C60 8.8174 58.9464 5.76515 57.0711 3.51472C55.1957 1.26428 52.6522 0 50 0H10ZM60 20.022L31.185 38.64C30.8208 38.8753 30.4136 38.9984 30 38.9984C29.5864 38.9984 29.1792 38.8753 28.815 38.64L0 20.022V48C0 51.1826 1.05357 54.2348 2.92893 56.4853C4.8043 58.7357 7.34784 60 10 60H50C52.6522 60 55.1957 58.7357 57.0711 56.4853C58.9464 54.2348 60 51.1826 60 48V20.022Z" fill="white"/>
</g>
<defs>
<clipPath id="clip0_101_50">
<rect width="60" height="60" fill="white"/>
</clipPath>
</defs>
</svg>
