<?xml version="1.0" standalone="no"?>
<!DOCTYPE svg PUBLIC "-//W3C//DTD SVG 20010904//EN"
 "http://www.w3.org/TR/2001/REC-SVG-20010904/DTD/svg10.dtd">
<svg version="1.0" xmlns="http://www.w3.org/2000/svg"
 width="1592.000000pt" height="1592.000000pt" viewBox="0 0 1592.000000 1592.000000"
 preserveAspectRatio="xMidYMid meet">
<metadata>
Created by potrace 1.14, written by Peter Selinger 2001-2017
</metadata>
<g transform="translate(0.000000,1592.000000) scale(0.100000,-0.100000)"
fill="#000000" stroke="none">
<path d="M7163 12433 c-19 -7 -16 -41 5 -47 9 -2 51 -10 92 -16 62 -10 137
-26 260 -55 27 -7 174 -53 230 -73 109 -39 323 -133 316 -139 -2 -2 -35 3 -72
12 -466 110 -940 116 -1329 18 -136 -35 -146 -50 -58 -90 32 -14 85 -38 118
-53 33 -15 70 -30 83 -34 37 -12 25 -22 -45 -41 -159 -42 -418 -134 -587 -210
-83 -37 -399 -196 -472 -238 l-62 -35 -153 67 c-85 37 -192 88 -239 114 -59
32 -90 43 -100 37 -17 -11 -16 -156 4 -278 l13 -81 -91 -31 c-134 -47 -356
-158 -477 -238 -127 -85 -136 -94 -114 -116 9 -9 22 -16 28 -17 24 -1 336 -77
359 -87 15 -6 4 -22 -65 -92 -352 -361 -575 -726 -658 -1077 -20 -82 -20 -88
-4 -100 14 -10 23 -9 48 4 31 16 87 34 87 29 0 -2 -11 -28 -24 -57 -30 -68
-133 -372 -142 -419 -13 -67 -10 -105 7 -105 8 0 46 28 84 62 38 35 71 60 73
58 3 -2 0 -10 -5 -17 -14 -17 -95 -226 -121 -308 -36 -116 -50 -196 -77 -432
-7 -65 13 -66 99 -8 42 28 78 56 82 61 14 24 25 6 19 -33 -6 -51 -13 -104 -20
-178 -4 -30 -8 -66 -10 -79 -24 -141 -23 -614 0 -806 6 -49 6 -51 -27 -69
-247 -146 -338 -540 -248 -1078 71 -422 163 -657 366 -934 60 -82 137 -187
169 -233 129 -181 240 -245 465 -266 36 -4 68 -10 71 -13 3 -4 20 -81 38 -172
30 -157 35 -180 46 -232 2 -13 7 -36 11 -53 18 -93 88 -278 146 -390 128 -246
497 -670 788 -905 24 -19 56 -47 71 -61 15 -14 38 -32 50 -41 23 -15 22 -16
-79 -67 -57 -28 -133 -71 -170 -95 -37 -24 -83 -47 -102 -51 -58 -12 -221 -72
-304 -110 -120 -55 -200 -111 -267 -183 -55 -61 -129 -186 -129 -218 0 -7 -17
-16 -37 -20 -21 -4 -47 -8 -58 -10 -11 -2 -54 -11 -95 -19 -41 -8 -84 -17 -95
-19 -11 -2 -54 -11 -95 -19 -41 -9 -95 -18 -120 -21 -137 -18 -342 -104 -460
-194 -103 -78 -102 -72 -8 -128 873 -512 1793 -827 2773 -948 347 -43 489 -51
905 -51 399 1 600 12 904 51 789 101 1579 340 2279 691 202 101 531 283 577
320 7 6 -33 36 -135 104 -128 84 -291 144 -450 163 -27 4 -139 23 -247 43
l-197 36 -32 66 c-99 203 -262 328 -550 424 -58 19 -125 41 -148 47 -24 6 -65
26 -91 45 -26 18 -95 57 -154 85 -58 29 -106 55 -106 59 1 3 23 23 49 44 27
21 57 46 68 55 10 10 50 44 88 77 134 115 298 285 480 497 97 112 218 294 269
403 28 60 65 152 92 232 14 40 68 285 80 361 3 20 8 40 9 43 2 3 7 25 10 50 3
24 9 60 13 79 l8 34 95 12 c214 27 314 82 421 228 103 141 126 173 205 281 45
61 100 141 122 179 95 164 179 419 230 709 30 168 36 244 35 447 -1 165 -4
196 -27 283 -55 206 -147 336 -287 401 -54 25 -66 35 -64 51 11 66 19 261 19
465 0 262 -9 423 -31 580 -3 24 -8 67 -10 95 -5 59 -41 258 -54 298 -8 25 -8
26 12 16 11 -6 24 -7 29 -2 27 28 37 241 16 360 l-13 71 59 -30 c33 -16 65
-27 73 -24 32 12 9 193 -45 354 -63 190 -166 375 -285 515 l-57 67 83 -2 83
-3 -3 25 c-13 116 -327 506 -560 694 -39 32 -72 60 -72 61 0 3 37 -1 96 -10
20 -4 35 0 43 9 29 35 -81 209 -207 327 l-85 79 99 46 c54 26 127 59 162 75
35 16 62 35 62 43 0 8 -19 30 -42 49 -110 89 -330 178 -513 207 -33 5 -78 12
-100 16 -22 4 -99 7 -172 7 -94 0 -130 3 -126 11 47 77 97 128 198 199 14 10
25 22 25 27 0 34 -166 60 -305 48 -180 -16 -337 -74 -486 -180 -14 -10 -28 -2
-80 44 -85 73 -328 241 -461 317 -176 101 -381 189 -534 229 -86 22 -92 14
-59 -74 22 -56 54 -152 55 -161 0 -1 -33 15 -72 36 -248 128 -531 211 -803
236 -120 11 -160 13 -172 8z"/>
</g>
</svg>
